<svg xmlns="http://www.w3.org/2000/svg" viewBox="0 0 512 512">
  <defs>
    <linearGradient id="bg" x1="0" y1="0" x2="0" y2="1">
      <stop offset="0%" stop-color="#1c0f45"/>
      <stop offset="45%" stop-color="#241454"/>
      <stop offset="100%" stop-color="#050310"/>
    </linearGradient>
  </defs>

  <rect width="512" height="512" rx="112" fill="url(#bg)"/>

  <g fill="#ffffff">
    <circle cx="60" cy="52" r="3.5" opacity="1"/>
    <circle cx="104" cy="94" r="2.4" opacity="0.9"/>
    <circle cx="150" cy="44" r="3" opacity="0.95"/>
    <circle cx="196" cy="76" r="2" opacity="0.8"/>
    <circle cx="256" cy="40" r="2.6" opacity="0.9"/>
    <circle cx="316" cy="70" r="2.2" opacity="0.85"/>
    <circle cx="356" cy="40" r="3.2" opacity="1"/>
    <circle cx="404" cy="82" r="3.6" opacity="0.95"/>
    <circle cx="452" cy="48" r="2.6" opacity="0.9"/>
    <circle cx="480" cy="96" r="2.2" opacity="0.8"/>
    <circle cx="40" cy="130" r="2.4" opacity="0.85"/>
    <circle cx="90" cy="160" r="2" opacity="0.75"/>
    <circle cx="440" cy="140" r="3" opacity="0.9"/>
    <circle cx="472" cy="180" r="2.4" opacity="0.85"/>
    <circle cx="30" cy="210" r="2.2" opacity="0.8"/>
    <circle cx="60" cy="250" r="1.8" opacity="0.7"/>
    <circle cx="482" cy="230" r="2.6" opacity="0.85"/>
    <circle cx="230" cy="110" r="1.8" opacity="0.7"/>
    <circle cx="280" cy="120" r="1.6" opacity="0.65"/>
    <circle cx="330" cy="108" r="2" opacity="0.75"/>
    <circle cx="180" cy="130" r="1.6" opacity="0.65"/>
  </g>

  <polyline points="58,428 108,406 150,418 192,368 232,382 272,326 312,342 352,276 392,296 430,226 460,202"
            fill="none" stroke="#2ee88a" stroke-width="20" stroke-linecap="round" stroke-linejoin="round" opacity="0.22"/>
  <polyline points="58,428 108,406 150,418 192,368 232,382 272,326 312,342 352,276 392,296 430,226 460,202"
            fill="none" stroke="#39ff8f" stroke-width="9" stroke-linecap="round" stroke-linejoin="round"/>
  <g fill="#c8ffe0">
    <circle cx="58" cy="428" r="5.5"/>
    <circle cx="150" cy="418" r="5.5"/>
    <circle cx="232" cy="382" r="5.5"/>
    <circle cx="312" cy="342" r="5.5"/>
    <circle cx="392" cy="296" r="5.5"/>
    <circle cx="460" cy="202" r="6.5"/>
  </g>

  <line x1="256" y1="230" x2="256" y2="198" stroke="#c9cfd8" stroke-width="6" stroke-linecap="round"/>
  <circle cx="256" cy="192" r="11" fill="#ff6b3d"/>
  <circle cx="252" cy="188" r="3.5" fill="#ffd7c2" opacity="0.85"/>

  <rect x="196" y="230" width="120" height="90" rx="20" fill="#e7eaef" stroke="#5b6472" stroke-width="4"/>
  <rect x="204" y="238" width="104" height="16" rx="8" fill="#ffffff" opacity="0.45"/>
  <circle cx="200" cy="252" r="5" fill="#9aa3af"/>
  <circle cx="312" cy="252" r="5" fill="#9aa3af"/>

  <circle cx="228" cy="274" r="15" fill="#0a2a33"/>
  <circle cx="228" cy="274" r="11" fill="#00e5ff"/>
  <circle cx="224" cy="270" r="3.5" fill="#d6faff" opacity="0.9"/>
  <circle cx="284" cy="274" r="15" fill="#330a10"/>
  <circle cx="284" cy="274" r="11" fill="#ff3d5c"/>
  <circle cx="280" cy="270" r="3.5" fill="#ffd6dc" opacity="0.9"/>

  <g fill="#5b6472">
    <rect x="242" y="298" width="5" height="10" rx="2"/>
    <rect x="254" y="298" width="5" height="10" rx="2"/>
    <rect x="266" y="298" width="5" height="10" rx="2"/>
  </g>

  <rect x="236" y="312" width="40" height="24" fill="#c9cfd8"/>

  <rect x="170" y="332" width="172" height="118" rx="18" fill="#dde1e6" stroke="#5b6472" stroke-width="4"/>
  <rect x="180" y="342" width="152" height="14" rx="7" fill="#ffffff" opacity="0.4"/>
  <rect x="210" y="356" width="92" height="60" rx="10" fill="#3c4550" stroke="#22262e" stroke-width="2"/>
  <circle cx="256" cy="386" r="17" fill="#0d3d24"/>
  <circle cx="256" cy="386" r="12" fill="#39ff8f"/>
  <path d="M249 386 l5 6 l10 -13" fill="none" stroke="#0d3d24" stroke-width="3.4" stroke-linecap="round" stroke-linejoin="round"/>

  <rect x="118" y="352" width="58" height="27" rx="13.5" fill="#d3d7dd" stroke="#5b6472" stroke-width="3"/>
  <circle cx="112" cy="365" r="15" fill="#aeb4bd" stroke="#5b6472" stroke-width="3"/>
  <rect x="336" y="352" width="58" height="27" rx="13.5" fill="#d3d7dd" stroke="#5b6472" stroke-width="3"/>
  <circle cx="400" cy="365" r="15" fill="#aeb4bd" stroke="#5b6472" stroke-width="3"/>

  <rect x="192" y="450" width="38" height="46" rx="10" fill="#c3c8ce" stroke="#5b6472" stroke-width="3"/>
  <rect x="282" y="450" width="38" height="46" rx="10" fill="#c3c8ce" stroke="#5b6472" stroke-width="3"/>
</svg>
